<?xml version="1.0" standalone="no"?>
<!DOCTYPE svg PUBLIC "-//W3C//DTD SVG 20010904//EN"
 "http://www.w3.org/TR/2001/REC-SVG-20010904/DTD/svg10.dtd">
<svg version="1.0" xmlns="http://www.w3.org/2000/svg"
 width="1280.000000pt" height="640.000000pt" viewBox="0 0 1280.000000 640.000000"
 preserveAspectRatio="xMidYMid meet">
<metadata>
Created by potrace 1.15, written by Peter Selinger 2001-2017
</metadata>
<g transform="translate(0.000000,640.000000) scale(0.100000,-0.100000)"
fill="#000000" stroke="none">
<path d="M5016 6366 c-22 -30 -96 -172 -109 -209 -3 -9 -226 -14 -888 -18
-728 -6 -897 -9 -959 -22 -124 -24 -159 -37 -171 -58 -6 -11 -14 -101 -18
-200 -5 -99 -10 -181 -12 -184 -3 -2 -403 -7 -889 -10 -1217 -9 -1693 -21
-1924 -51 l-49 -6 7 -230 c8 -237 12 -271 41 -282 76 -29 910 -31 2135 -6 250
5 512 7 581 3 l126 -6 6 -156 c4 -95 12 -176 22 -207 l15 -52 128 -7 c70 -4
592 -6 1160 -3 567 3 1032 2 1032 -1 -1 -3 -7 -17 -15 -31 -34 -60 -11 -164
68 -298 20 -35 37 -67 37 -72 0 -17 -151 -110 -180 -110 -21 0 -49 20 -117 85
-125 117 -140 121 -253 64 -128 -63 -223 -190 -224 -298 -1 -90 69 -199 184
-290 l25 -19 -21 -24 c-12 -12 -37 -48 -56 -78 -45 -72 -91 -110 -130 -110
-17 0 -80 23 -139 50 -135 63 -172 65 -227 15 -22 -19 -53 -61 -70 -93 -46
-86 -124 -290 -120 -315 3 -19 25 -29 153 -72 144 -48 208 -78 235 -110 10
-12 6 -35 -20 -117 -18 -57 -38 -108 -44 -115 -6 -6 -69 -19 -141 -28 -233
-29 -239 -33 -251 -183 -4 -53 -2 -141 3 -195 14 -143 11 -141 218 -147 93 -3
169 -10 174 -15 12 -12 41 -195 41 -257 l0 -37 -87 -26 c-143 -43 -213 -68
-225 -83 -24 -28 92 -353 145 -406 28 -28 30 -29 105 -23 42 3 106 15 140 27
117 37 137 27 197 -102 52 -113 55 -102 -72 -258 -64 -77 -59 -109 38 -241 61
-83 128 -145 182 -170 77 -35 114 -23 235 72 128 102 165 102 262 4 l54 -54
-46 -58 c-59 -75 -88 -134 -88 -176 0 -28 8 -42 43 -74 123 -113 334 -195 388
-150 9 6 45 51 82 98 148 194 233 232 343 157 51 -35 59 -57 45 -124 -14 -73
-14 -162 0 -203 21 -59 49 -66 274 -65 169 1 209 4 255 20 l55 19 5 174 5 175
128 26 c88 18 130 23 136 16 5 -6 11 -33 15 -59 3 -26 23 -91 43 -144 l38 -95
75 6 c103 10 153 23 238 63 84 39 162 108 162 142 0 41 -31 144 -67 223 -20
43 -34 80 -32 82 30 26 199 116 218 116 20 0 50 -24 126 -100 61 -61 108 -100
120 -100 32 0 153 86 232 165 73 73 133 173 133 223 0 39 -26 77 -92 133 -125
105 -131 127 -68 224 80 122 112 133 239 76 124 -55 175 -54 239 4 65 58 124
208 133 339 l4 48 -116 38 c-142 46 -197 74 -208 104 -12 29 3 163 23 210 9
22 26 41 43 48 15 6 96 13 180 16 l152 4 18 52 c14 40 18 83 18 206 0 245 -5
250 -244 250 l-150 0 -20 68 c-26 89 -41 166 -41 206 0 33 1 33 128 85 168 68
192 83 192 119 0 103 -76 268 -164 358 -76 79 -73 79 -224 9 -134 -61 -143
-60 -192 17 -78 119 -76 163 7 221 148 102 173 159 111 252 -18 27 -82 100
-143 162 l-110 114 -52 -36 c-29 -19 -87 -74 -129 -123 -42 -48 -80 -88 -84
-90 -8 -3 -216 143 -258 182 -33 30 -54 73 -47 97 4 11 24 40 46 65 47 55 79
114 79 148 0 25 -20 46 -105 104 -34 24 -44 37 -37 44 17 17 87 -5 232 -72
l129 -60 140 0 140 0 47 60 c37 47 54 61 83 66 20 4 374 4 787 0 l750 -7 175
159 c171 156 215 202 277 293 l31 46 1283 7 c909 5 1284 10 1289 18 17 26 29
172 29 337 l0 179 -37 7 c-21 4 -617 5 -1326 4 l-1288 -3 -102 77 c-162 122
-209 171 -242 253 l-24 59 -83 8 c-46 4 -596 9 -1223 12 l-1140 4 -60 121 -60
120 -205 -1 c-113 -1 -216 -4 -230 -8 -27 -7 -40 -37 -60 -134 -17 -84 -43
-109 -117 -115 -99 -7 -144 30 -221 186 l-36 72 -233 0 -233 0 0 -75 c0 -82
-21 -149 -51 -165 -10 -6 -70 -10 -133 -10 l-115 0 -21 48 c-11 26 -42 82 -67
125 l-47 77 -202 0 -202 0 -26 -34z m1652 -1731 c17 -9 84 -23 149 -31 65 -8
130 -19 144 -25 28 -11 86 -66 78 -73 -14 -14 -168 -28 -262 -23 -137 6 -147
13 -147 104 0 34 2 63 3 63 2 0 18 -7 35 -15z m-608 -106 c0 -39 -192 -59
-244 -25 -22 14 -26 20 -15 27 20 13 259 11 259 -2z m560 -1552 c242 -85 383
-303 367 -568 -15 -238 -157 -429 -385 -516 -55 -21 -90 -27 -194 -31 -142 -5
-187 2 -282 49 -203 99 -303 265 -313 524 -12 290 90 446 345 530 159 52 335
56 462 12z"/>
</g>
</svg>
